<?xml version="1.0" encoding="utf-8"?>
<!-- Generator: Adobe Illustrator 26.5.0, SVG Export Plug-In . SVG Version: 6.00 Build 0)  -->
<svg version="1.1" id="Layer_1" xmlns="http://www.w3.org/2000/svg" xmlns:xlink="http://www.w3.org/1999/xlink" x="0px" y="0px"
	 viewBox="0 0 280.8 187.2" style="enable-background:new 0 0 280.8 187.2;" xml:space="preserve">
<style type="text/css">
	.st0{fill-rule:evenodd;clip-rule:evenodd;fill:#010203;}
	.st1{fill:#3B373E;}
</style>
<path class="st0" d="M114.86,78.93c-0.04,0.66,0.03,1.86,0.1,2.26c0.06,0.31,0.08,0.29,0.14,0.51c0.07,0.25,0.07,0.36,0.09,0.63
	l0.96,3.28c0.12,0.28,0.1,0.13,0.2,0.45c0.03,0.09,0.03,0.15,0.09,0.27l0.82,1.62c0.39,0.9,1.24,2.02,1.83,2.84l0.09,0.12
	c0.01,0.01,0.02,0.03,0.03,0.04l2.33,2.56c0.1,0.1,0.1,0.1,0.18,0.18l3.74,2.87c0.17,0.1,0.27,0.16,0.45,0.27l2.31,1.21
	c0.45,0.25,0.98,0.42,1.45,0.64c0.19,0.09,0.37,0.09,0.55,0.17c0.65,0.27,1.42,0.47,2.08,0.72l1.7,0.38
	c0.44,0.04,0.74,0.17,1.2,0.24c0.47,0.07,0.86,0.05,1.32,0.12c0.24,0.03,0.24,0.09,0.57,0.15c0.67,0.12,4.41,0.12,5.07,0.01
	c0.33-0.06,0.38-0.11,0.57-0.15c0.58-0.11,1.23-0.07,1.84-0.24c0.4-0.11,0.88-0.09,1.23-0.21c0.62-0.22,0.74-0.16,1.1-0.27
	c0.22-0.07,0.26-0.14,0.52-0.2c0.7-0.16,0.61-0.22,1.1-0.34l2.02-0.79c0.31-0.18,1.15-0.49,1.88-0.93c0.62-0.38,1.16-0.6,1.77-1.03
	c0.31-0.22,0.55-0.33,0.83-0.54c0.79-0.61,1.65-1.18,2.35-1.89l1.07-1.02c1.31-1.45,1.73-2.02,2.81-3.59
	c0.01-0.01,0.02-0.03,0.03-0.04c0.01-0.02,0.05-0.06,0.07-0.08c0.37-0.48,0.64-1.07,0.93-1.59l0.66-1.42
	c0.02-0.07,0.05-0.19,0.08-0.28c0.15-0.39,0.41-0.82,0.51-1.21c0.08-0.29,0.02-0.3,0.14-0.58c0.15-0.34,0.17-0.75,0.28-1.09
	l0.27-1.17c0.04-0.4,0.06-0.32,0.13-0.59l0.17-1.99c0-0.13-0.01-0.22-0.03-0.3H114.86L114.86,78.93z M114.97,101.32
	c-0.27,1.18,0.58,0.95,2.52,0.93c0.85-0.01,0.61-0.17,1.49,0.89c0.08,0.1,0.13,0.18,0.2,0.24h42.9c0.04-0.04,0.07-0.09,0.12-0.15
	c0.14-0.15,0.17-0.2,0.3-0.35c0.71-0.87,0.55-0.64,2.32-0.63c1.03,0.01,1.27-0.11,1.08-0.94l-0.01,0L114.97,101.32L114.97,101.32
	L114.97,101.32z M131.84,61.2c0.05,0.38,0.72,0.52,1.21,0.76l2.95,1.44c0.32,0.11,0.22,0.15,0.51,0.28c0.08,0.04,0.15,0.04,0.26,0.1
	c0.43,0.23,0.96,0.4,1.35,0.66l1.08,0.5c0.22,0.09,0.04,0.03,0.23,0.13l4.97,2.43c0.02,0.01,0.03,0.01,0.05,0.02
	c0.02,0.01,0.04,0.01,0.05,0.02l1.6,0.77c0.28,0.18,0.31,0.11,0.54,0.25c0.21,0.12-0.06,0.01,0.21,0.15l1.68,0.77
	c0.06,0.03,0.1,0.06,0.12,0.08l11.77-3.19c0.09-0.06,0.17-0.14,0.22-0.22c0.3-0.52,0.82-1.99,1-2.59l0.28-0.94
	c0.06-0.28,0.15-0.32,0.21-0.58c0.06-0.21,0.06-0.55,0.09-0.7c0.07-0.34,0.11-0.3,0.18-0.61l0.34-2.9c0-2.61-0.04-2.18-0.3-4.52
	l-0.61-2.34c-0.06-0.19-0.15-0.3-0.27-0.36L131.84,61.2L131.84,61.2z M116.82,55.46l30.94,14.43l-27.77,7.52
	c-0.44-0.42-0.99-1.48-1.32-1.94c-0.01-0.01-0.02-0.03-0.03-0.04c-0.27-0.37-0.41-0.77-0.66-1.14c-0.39-0.58-0.65-1.32-0.94-1.93
	l-0.66-1.72c-0.07-0.27-0.06-0.22-0.15-0.42l-0.65-2.37c-0.16-0.56-0.09-0.99-0.21-1.52c-0.26-1.13-0.25-3.25-0.19-4.49
	c0.04-0.77,0.45-3.19,0.75-4c0.12-0.32,0.14-0.63,0.26-0.89C116.34,56.64,116.59,55.82,116.82,55.46L116.82,55.46z M120.43,78.06
	l44.6-12.08c0.02,0.03,0.04,0.06,0.07,0.11c0.29,0.56,0.3,1.27,0.45,1.86c0.05,0.19,0.1,0.56,0.12,0.74
	c0.11,0.83,0.05,2.75,0.02,3.65c-0.02,0.56-0.17,1.02-0.26,1.61c-0.05,0.32-0.03,0.57-0.09,0.85l-0.36,1.44
	c-0.1,0.25-0.08,0.1-0.14,0.36l-0.28,0.87c-0.12,0.33-0.11,0.5-0.45,0.62c-0.11,0.04-0.61,0.07-1.35,0.09h-11.02
	c-1.05-0.01-1.86-0.01-2.23-0.01c-7.34,0-14.67,0-22.01,0c-0.26,0-0.69,0.01-1.23,0.01h-4.51
	C121.15,78.15,120.68,78.12,120.43,78.06z"/>
<g>
	<g>
		<path class="st1" d="M98.53,121c-0.83,0.1-1,0.14-1.12,0.97c-0.25,1.79-0.4,3.14-0.58,4.71c-0.12,1.08-0.05,1.17,0.88,1.26
			l-0.1,0.42H94.1l0.11-0.42c0.82-0.08,0.91-0.18,1.08-1.25c0.25-1.7,0.44-3.14,0.67-4.69h-0.04c-1.2,2.1-2.4,4.26-3.55,6.36H92
			c-0.32-1.97-0.78-4.14-1.19-6.34h-0.05l-0.73,2.93c-0.29,1.16-0.43,1.85-0.47,2.13c-0.11,0.66,0.11,0.79,0.97,0.86l-0.1,0.42
			h-3.02l0.11-0.42c0.82-0.06,1-0.23,1.22-0.8c0.14-0.36,0.34-0.94,0.65-2.09l0.74-2.73c0.29-1.06,0.28-1.22-0.82-1.32l0.14-0.43
			h2.43c0.36,1.64,0.91,3.81,1.21,5.31l3.07-5.31h2.48L98.53,121z"/>
		<path class="st1" d="M106.11,127.19c-0.73,0.94-1.52,1.32-2.05,1.32c-0.43,0-0.58-0.4-0.38-1.31c0.05-0.23,0.08-0.4,0.13-0.61
			c-0.42,0.55-0.77,0.94-1.31,1.39c-0.23,0.19-0.71,0.53-1.21,0.53c-0.47,0-0.96-0.29-0.62-1.74c0.17-0.72,0.36-1.46,0.56-2.36
			c0.07-0.3,0.07-0.42-0.04-0.42c-0.12,0-0.5,0.28-0.74,0.52l-0.18-0.38c0.72-0.78,1.62-1.22,2.09-1.22c0.42,0,0.56,0.34,0.3,1.46
			c-0.17,0.71-0.37,1.44-0.55,2.3c-0.13,0.54-0.05,0.74,0.13,0.74c0.34,0,0.84-0.49,1.26-1.09c0.25-0.37,0.48-0.78,0.67-1.5
			c0.11-0.42,0.22-0.96,0.35-1.58c0.4-0.11,0.92-0.24,1.33-0.34h0.17c-0.3,1.2-0.72,2.93-0.9,3.99c-0.05,0.31-0.05,0.44,0.05,0.44
			c0.1,0,0.34-0.1,0.73-0.52L106.11,127.19z"/>
		<path class="st1" d="M111.18,127.2c-0.76,0.91-1.61,1.31-2.07,1.31c-0.4,0-0.64-0.25-0.41-1.38c0.34-1.62,0.8-3.91,1.16-5.7
			c0.11-0.53,0.04-0.58-0.4-0.62c-0.11,0-0.29-0.04-0.35-0.04l0.11-0.38c0.78-0.1,1.42-0.22,1.8-0.34c0.2-0.07,0.34-0.1,0.42-0.1
			c0.14,0,0.16,0.13,0.1,0.42c-0.47,2.13-1.07,5.11-1.37,6.54c-0.06,0.3-0.06,0.43,0.04,0.43c0.1,0,0.4-0.16,0.76-0.53L111.18,127.2
			z"/>
		<path class="st1" d="M117.04,123.56c-0.18,0.02-0.8,0.06-1.14,0.07c-0.56,2.71-0.54,2.57-0.66,3.25
			c-0.08,0.44-0.02,0.54,0.08,0.54c0.23,0,0.62-0.26,1-0.68l0.19,0.37c-0.47,0.64-1.42,1.39-2.16,1.39c-0.56,0-0.8-0.42-0.52-1.71
			l0.67-3.15h-0.94l-0.02-0.11l0.37-0.49h0.72l0.26-1.25c0.41-0.2,1.1-0.56,1.44-0.83l0.18,0.11c-0.13,0.43-0.36,1.34-0.49,1.97
			h1.27L117.04,123.56z"/>
		<path class="st1" d="M121.7,127.19c-0.76,0.91-1.61,1.32-2.1,1.32c-0.4,0-0.61-0.36-0.42-1.2c0.23-0.96,0.5-1.99,0.68-2.79
			c0.08-0.35,0.07-0.46-0.04-0.46c-0.12,0-0.4,0.17-0.66,0.4l-0.18-0.38c0.8-0.78,1.65-1.17,2.1-1.17c0.41,0,0.5,0.37,0.24,1.49
			c-0.18,0.74-0.44,1.77-0.62,2.52c-0.08,0.3-0.08,0.47,0.01,0.47c0.1,0,0.4-0.17,0.78-0.56L121.7,127.19z M121.9,121.19
			c0,0.48-0.36,0.94-0.89,0.94c-0.43,0-0.73-0.28-0.73-0.74c0-0.41,0.32-0.92,0.94-0.92C121.68,120.46,121.9,120.79,121.9,121.19z"
			/>
		<path class="st1" d="M131.03,128.46h-0.2c-1.62-0.01-1.98-0.41-2.36-1.15c-0.24-0.48-0.52-1.21-0.72-1.74
			c-0.16-0.4-0.28-0.58-0.64-0.58h-0.34l-0.34,1.82c-0.17,0.92-0.04,1.02,0.89,1.13l-0.1,0.42h-3.65l0.08-0.42
			c0.85-0.08,1.06-0.19,1.22-1.12l0.91-4.76c0.19-0.95,0.06-1.01-0.86-1.07l0.11-0.43h3.27c1.76,0,2.58,0.77,2.58,1.92
			c0,1.16-0.91,1.87-1.88,2.18c0.23,0.61,0.48,1.19,0.68,1.64c0.7,1.45,0.98,1.62,1.44,1.76L131.03,128.46z M127.2,124.49
			c1.28,0,2.03-0.67,2.03-1.96c0-0.78-0.38-1.45-1.16-1.45c-0.36,0-0.55,0.05-0.66,0.62l-0.53,2.78H127.2z"/>
		<path class="st1" d="M135.91,127.19c-0.76,0.91-1.61,1.32-2.1,1.32c-0.4,0-0.61-0.36-0.42-1.2c0.23-0.96,0.5-1.99,0.68-2.79
			c0.08-0.35,0.07-0.46-0.04-0.46c-0.12,0-0.4,0.17-0.66,0.4l-0.18-0.38c0.8-0.78,1.65-1.17,2.1-1.17c0.41,0,0.5,0.37,0.24,1.49
			c-0.18,0.74-0.44,1.77-0.62,2.52c-0.08,0.3-0.08,0.47,0.01,0.47c0.1,0,0.4-0.17,0.78-0.56L135.91,127.19z M136.11,121.19
			c0,0.48-0.36,0.94-0.89,0.94c-0.43,0-0.73-0.28-0.73-0.74c0-0.41,0.32-0.92,0.94-0.92C135.9,120.46,136.11,120.79,136.11,121.19z"
			/>
		<path class="st1" d="M142.07,123.66c0,0.26-0.18,0.56-0.47,0.71c-0.16,0.07-0.24,0.06-0.41-0.1c-0.37-0.4-0.66-0.65-1-0.65
			c-0.35,0-0.5,0.25-0.49,0.49c0,0.31,0.38,0.56,0.83,0.89c0.7,0.5,1.21,0.84,1.21,1.5c0,1.09-1.64,2-2.48,2
			c-0.66,0-1.34-0.42-1.37-0.97c-0.01-0.29,0.29-0.68,0.58-0.78c0.11-0.04,0.18,0,0.3,0.13c0.41,0.52,0.92,0.88,1.33,0.88
			c0.31,0,0.52-0.23,0.52-0.49c0-0.25-0.11-0.47-0.72-0.91c-0.6-0.42-1.24-0.8-1.24-1.55c0-0.46,0.22-0.89,0.77-1.33
			c0.47-0.36,1.06-0.59,1.54-0.59C141.59,122.89,142.07,123.24,142.07,123.66z"/>
		<path class="st1" d="M147.82,123.56c-0.18,0.02-0.8,0.06-1.14,0.07c-0.56,2.71-0.54,2.57-0.66,3.25
			c-0.08,0.44-0.02,0.54,0.08,0.54c0.23,0,0.62-0.26,1-0.68l0.19,0.37c-0.47,0.64-1.42,1.39-2.16,1.39c-0.56,0-0.8-0.42-0.52-1.71
			l0.67-3.15h-0.94l-0.02-0.11l0.37-0.49h0.72l0.26-1.25c0.41-0.2,1.1-0.56,1.44-0.83l0.18,0.11c-0.13,0.43-0.36,1.34-0.49,1.97
			h1.27L147.82,123.56z"/>
		<path class="st1" d="M154.94,124.85c0,1.24-0.58,2.51-1.74,3.18c-0.46,0.28-1.03,0.48-1.63,0.48c-1.44,0-1.82-1.08-1.82-1.97
			c0-1.7,0.98-2.9,2.21-3.41c0.4-0.16,0.84-0.24,1.2-0.24C154.35,122.89,154.94,123.68,154.94,124.85z M151.32,126.61
			c0,0.92,0.29,1.36,0.74,1.36c0.83,0,1.32-1.73,1.32-3.2c0-0.94-0.29-1.34-0.72-1.34C151.61,123.42,151.32,125.74,151.32,126.61z"
			/>
		<path class="st1" d="M157.3,124.12c0.66-0.74,1.38-1.22,1.94-1.22c0.43,0,0.59,0.52,0.3,1.73l-0.06,0.26
			c0.6-1.07,1.33-1.99,1.92-1.99c0.4,0,0.66,0.34,0.66,0.65c0,0.38-0.34,0.86-0.61,1.04c-0.13,0.08-0.23,0.08-0.3,0
			c-0.19-0.2-0.36-0.36-0.52-0.36c-0.35,0-0.96,1.09-1.09,1.37c-0.29,0.59-0.52,1.74-0.7,2.65c-0.46,0.05-1.01,0.16-1.38,0.26
			l-0.1-0.11c0.3-1.21,0.65-2.7,0.82-3.56c0.16-0.73,0.12-0.83,0.02-0.83s-0.43,0.2-0.73,0.49L157.3,124.12z"/>
		<path class="st1" d="M169.55,127.15c-0.65,0.84-1.52,1.35-2.04,1.35c-0.4,0-0.6-0.35-0.38-1.47l0.08-0.42
			c-0.46,0.65-0.98,1.15-1.29,1.38c-0.42,0.34-0.77,0.52-1.18,0.52c-0.5,0-0.9-0.48-0.9-1.45c0-1.16,0.47-2.37,1.32-3.17
			c0.66-0.59,1.61-1,2.49-1c0.67,0,1.4,0.19,1.68,0.22c-0.24,0.94-0.64,2.76-0.8,3.75c-0.05,0.3-0.04,0.47,0.06,0.47
			c0.13,0,0.41-0.18,0.76-0.54L169.55,127.15z M167,126.18c0.2-0.29,0.38-0.66,0.5-1.13c0.11-0.49,0.25-1.1,0.3-1.43
			c-0.17-0.1-0.53-0.17-0.77-0.17c-1.1,0-1.64,1.99-1.62,3.26c0,0.48,0.13,0.68,0.3,0.68C165.99,127.4,166.42,127.05,167,126.18z"/>
		<path class="st1" d="M177.67,127.17c-0.76,0.95-1.61,1.33-2.06,1.33c-0.42,0-0.62-0.26-0.4-1.39c0.14-0.74,0.38-1.67,0.56-2.41
			c0.14-0.59,0.05-0.75-0.12-0.75c-0.32,0-1.03,0.63-1.57,1.56c-0.25,0.43-0.34,0.73-0.43,1.13c-0.12,0.52-0.25,1.09-0.36,1.61
			c-0.47,0.05-1.02,0.16-1.38,0.26l-0.1-0.11c0.29-1.24,0.61-2.53,0.91-3.92c0.08-0.36,0.06-0.47-0.04-0.47
			c-0.13,0-0.47,0.24-0.72,0.48l-0.18-0.38c0.77-0.86,1.46-1.21,1.9-1.21c0.46,0,0.64,0.46,0.37,1.63l-0.1,0.4
			c0.67-1,1.83-2.03,2.72-2.03c0.46,0,0.86,0.23,0.49,1.83c-0.16,0.65-0.37,1.57-0.5,2.17c-0.06,0.31-0.06,0.44,0.04,0.44
			c0.13,0,0.41-0.14,0.77-0.55L177.67,127.17z"/>
		<path class="st1" d="M183.57,123.56c-0.18,0.02-0.8,0.06-1.14,0.07c-0.56,2.71-0.54,2.57-0.66,3.25
			c-0.08,0.44-0.02,0.54,0.08,0.54c0.23,0,0.62-0.26,1-0.68l0.19,0.37c-0.47,0.64-1.42,1.39-2.16,1.39c-0.56,0-0.8-0.42-0.52-1.71
			l0.67-3.15h-0.94l-0.02-0.11l0.37-0.49h0.72l0.26-1.25c0.41-0.2,1.1-0.56,1.44-0.83l0.18,0.11c-0.13,0.43-0.36,1.34-0.49,1.97
			h1.27L183.57,123.56z"/>
		<path class="st1" d="M187.02,128.51c-0.73,0-1.51-0.4-1.51-1.82c0-1.13,0.48-2.34,1.38-3.05c0.49-0.37,1.26-0.74,1.92-0.74
			c0.88,0,1.27,0.49,1.27,1.06c0,1.26-1.82,1.74-3.01,1.97c-0.01,0.11-0.02,0.37-0.02,0.46c0,0.62,0.19,1.18,0.84,1.18
			c0.59,0,1.19-0.35,1.76-0.95l0.19,0.38C188.95,128.05,187.93,128.51,187.02,128.51z M187.12,125.46c1.25-0.3,1.63-0.8,1.63-1.44
			c0-0.4-0.2-0.56-0.48-0.56C187.96,123.46,187.35,123.83,187.12,125.46z"/>
	</g>
</g>
</svg>
