<?xml version="1.0" encoding="utf-8"?>
<!-- Generator: Adobe Illustrator 26.5.0, SVG Export Plug-In . SVG Version: 6.00 Build 0)  -->
<svg version="1.1" id="Layer_1" xmlns="http://www.w3.org/2000/svg" xmlns:xlink="http://www.w3.org/1999/xlink" x="0px" y="0px"
	 viewBox="0 0 280.8 187.2" style="enable-background:new 0 0 280.8 187.2;" xml:space="preserve">
<style type="text/css">
	.st0{fill-rule:evenodd;clip-rule:evenodd;fill:#010203;}
</style>
<path class="st0" d="M114.86,78.93c-0.04,0.66,0.03,1.86,0.1,2.26c0.06,0.31,0.08,0.29,0.14,0.51c0.07,0.25,0.07,0.36,0.09,0.63
	l0.96,3.28c0.12,0.28,0.1,0.13,0.2,0.45c0.03,0.09,0.03,0.15,0.09,0.27l0.82,1.62c0.39,0.9,1.24,2.02,1.83,2.84l0.09,0.12
	c0.01,0.01,0.02,0.03,0.03,0.04l2.33,2.56c0.1,0.1,0.1,0.1,0.18,0.18l3.74,2.87c0.17,0.1,0.27,0.16,0.45,0.27l2.31,1.21
	c0.45,0.25,0.98,0.42,1.45,0.64c0.19,0.09,0.37,0.09,0.55,0.17c0.65,0.27,1.42,0.47,2.08,0.72l1.7,0.38
	c0.44,0.04,0.74,0.17,1.2,0.24c0.47,0.07,0.86,0.05,1.32,0.12c0.24,0.03,0.24,0.09,0.57,0.15c0.67,0.12,4.41,0.12,5.07,0.01
	c0.33-0.06,0.38-0.11,0.57-0.15c0.58-0.11,1.23-0.07,1.84-0.24c0.4-0.11,0.88-0.09,1.23-0.21c0.62-0.22,0.74-0.16,1.1-0.27
	c0.22-0.07,0.26-0.14,0.52-0.2c0.7-0.16,0.61-0.22,1.1-0.34l2.02-0.79c0.31-0.18,1.15-0.49,1.88-0.93c0.62-0.38,1.16-0.6,1.77-1.03
	c0.31-0.22,0.55-0.33,0.83-0.54c0.79-0.61,1.65-1.18,2.35-1.89l1.07-1.02c1.31-1.45,1.73-2.02,2.81-3.59
	c0.01-0.01,0.02-0.03,0.03-0.04c0.01-0.02,0.05-0.06,0.07-0.08c0.37-0.48,0.64-1.07,0.93-1.59l0.66-1.42
	c0.02-0.07,0.05-0.19,0.08-0.28c0.15-0.39,0.41-0.82,0.51-1.21c0.08-0.29,0.02-0.3,0.14-0.58c0.15-0.34,0.17-0.75,0.28-1.09
	l0.27-1.17c0.04-0.4,0.06-0.32,0.13-0.59l0.17-1.99c0-0.13-0.01-0.22-0.03-0.3H114.86L114.86,78.93z M114.97,101.32
	c-0.27,1.18,0.58,0.95,2.52,0.93c0.85-0.01,0.61-0.17,1.49,0.89c0.08,0.1,0.13,0.18,0.2,0.24h42.9c0.04-0.04,0.07-0.09,0.12-0.15
	c0.14-0.15,0.17-0.2,0.3-0.35c0.71-0.87,0.55-0.64,2.32-0.63c1.03,0.01,1.27-0.11,1.08-0.94l-0.01,0L114.97,101.32L114.97,101.32
	L114.97,101.32z M131.84,61.2c0.05,0.38,0.72,0.52,1.21,0.76l2.95,1.44c0.32,0.11,0.22,0.15,0.51,0.28c0.08,0.04,0.15,0.04,0.26,0.1
	c0.43,0.23,0.96,0.4,1.35,0.66l1.08,0.5c0.22,0.09,0.04,0.03,0.23,0.13l4.97,2.43c0.02,0.01,0.03,0.01,0.05,0.02
	c0.02,0.01,0.04,0.01,0.05,0.02l1.6,0.77c0.28,0.18,0.31,0.11,0.54,0.25c0.21,0.12-0.06,0.01,0.21,0.15l1.68,0.77
	c0.06,0.03,0.1,0.06,0.12,0.08l11.77-3.19c0.09-0.06,0.17-0.14,0.22-0.22c0.3-0.52,0.82-1.99,1-2.59l0.28-0.94
	c0.06-0.28,0.15-0.32,0.21-0.58c0.06-0.21,0.06-0.55,0.09-0.7c0.07-0.34,0.11-0.3,0.18-0.61l0.34-2.9c0-2.61-0.04-2.18-0.3-4.52
	l-0.61-2.34c-0.06-0.19-0.15-0.3-0.27-0.36L131.84,61.2L131.84,61.2z M116.82,55.46l30.94,14.43l-27.77,7.52
	c-0.44-0.42-0.99-1.48-1.32-1.94c-0.01-0.01-0.02-0.03-0.03-0.04c-0.27-0.37-0.41-0.77-0.66-1.14c-0.39-0.58-0.65-1.32-0.94-1.93
	l-0.66-1.72c-0.07-0.27-0.06-0.22-0.15-0.42l-0.65-2.37c-0.16-0.56-0.09-0.99-0.21-1.52c-0.26-1.13-0.25-3.25-0.19-4.49
	c0.04-0.77,0.45-3.19,0.75-4c0.12-0.32,0.14-0.63,0.26-0.89C116.34,56.64,116.59,55.82,116.82,55.46L116.82,55.46z M120.43,78.06
	l44.6-12.08c0.02,0.03,0.04,0.06,0.07,0.11c0.29,0.56,0.3,1.27,0.45,1.86c0.05,0.19,0.1,0.56,0.12,0.74
	c0.11,0.83,0.05,2.75,0.02,3.65c-0.02,0.56-0.17,1.02-0.26,1.61c-0.05,0.32-0.03,0.57-0.09,0.85l-0.36,1.44
	c-0.1,0.25-0.08,0.1-0.14,0.36l-0.28,0.87c-0.12,0.33-0.11,0.5-0.45,0.62c-0.11,0.04-0.61,0.07-1.35,0.09h-11.02
	c-1.05-0.01-1.86-0.01-2.23-0.01c-7.34,0-14.67,0-22.01,0c-0.26,0-0.69,0.01-1.23,0.01h-4.51
	C121.15,78.15,120.68,78.12,120.43,78.06z"/>
<g>
	<g>
	</g>
</g>
<g>
	<g>
	</g>
</g>
<g>
	<g>
	</g>
</g>
</svg>
